# xmcd
#
# Track frame offsets:
#	150
#	59720
#	96255
#	152300
#	200420
#	262885
#
# Disc length: 4197 seconds
#
# Revision: 0
# Processed by: cddbd v1.5.2PL0 Copyright (c) Steve Scherf et al.
# Submitted via: EasyCDDAExtractor 11.1.0.1
#
DISCID=49106306
DTITLE=Robert Randolph And The Family Band - Live At The Wetlands
DYEAR=2002
DGENRE=Blues
TTITLE0=Ted's Jam
TTITLE1=The March
TTITLE2=Pressing My Way
TTITLE3=Shake Your Hips
TTITLE4=I Don't Know What You Come To Do
TTITLE5=Tears of Joy
EXTD=
EXTT0=
EXTT1=
EXTT2=
EXTT3=
EXTT4=
EXTT5=
PLAYORDER=
